inDegrees=no
num_controls=7
num_derivatives=13
num_iterations=120
num_multipliers=7
num_parameters=0
num_slacks=7
num_states=26
objective=0.516766
objective_accelerations=0.039756
objective_balance=0.002238
objective_effort=0.044295
objective_height=0.418829
objective_ligament=0.011648
solver_duration=1585.705693
status=Solve_Succeeded
success=true
DataType=double
version=3
OpenSimVersion=4.5
endheader
time	/jointset/ground_pelvis/pelvis_tilt/value	/jointset/ground_pelvis/pelvis_tx/value	/jointset/ground_pelvis/pelvis_ty/value	/jointset/hip_l/hip_flexion_l/value	/jointset/hip_l/hip_adduction_l/value	/jointset/hip_l/hip_rotation_l/value	/jointset/back/lumbar_extension/value	/jointset/patellofemoral_l/patellar_flexion_l/value	/jointset/knee_l/knee_flexion_l/value	/jointset/knee_l/knee_adduction_l/value	/jointset/knee_l/knee_rotation_l/value	/jointset/ankle_l/ankle_angle_l/value	/jointset/subtalar_l/subtalar_angle_l/value	/jointset/ground_pelvis/pelvis_tilt/speed	/jointset/ground_pelvis/pelvis_tx/speed	/jointset/ground_pelvis/pelvis_ty/speed	/jointset/hip_l/hip_flexion_l/speed	/jointset/hip_l/hip_adduction_l/speed	/jointset/hip_l/hip_rotation_l/speed	/jointset/back/lumbar_extension/speed	/jointset/patellofemoral_l/patellar_flexion_l/speed	/jointset/knee_l/knee_flexion_l/speed	/jointset/knee_l/knee_adduction_l/speed	/jointset/knee_l/knee_rotation_l/speed	/jointset/ankle_l/ankle_angle_l/speed	/jointset/subtalar_l/subtalar_angle_l/speed	/forceset/tau_hip_flexion_l	/forceset/tau_hip_adduction_l	/forceset/tau_hip_rotation_l	/forceset/tau_knee_flexion_l	/forceset/tau_ankle_angle_l	/forceset/tau_subtalar_angle_l	/forceset/tau_lumbar_extension	lambda_cid13_p0	lambda_cid13_p1	lambda_cid13_p2	lambda_cid13_p3	lambda_cid13_p4	lambda_cid13_p5	lambda_cid14_p0	/jointset/ground_pelvis/pelvis_tilt/accel	/jointset/ground_pelvis/pelvis_tx/accel	/jointset/ground_pelvis/pelvis_ty/accel	/jointset/hip_l/hip_flexion_l/accel	/jointset/hip_l/hip_adduction_l/accel	/jointset/hip_l/hip_rotation_l/accel	/jointset/back/lumbar_extension/accel	/jointset/patellofemoral_l/patellar_flexion_l/accel	/jointset/knee_l/knee_flexion_l/accel	/jointset/knee_l/knee_adduction_l/accel	/jointset/knee_l/knee_rotation_l/accel	/jointset/ankle_l/ankle_angle_l/accel	/jointset/subtalar_l/subtalar_angle_l/accel	gamma_cid13_p0	gamma_cid13_p1	gamma_cid13_p2	gamma_cid13_p3	gamma_cid13_p4	gamma_cid13_p5	gamma_cid14_p0
0	-0.03681059189022572	0.05667212806398154	0.9203418157715813	0.3085816938045678	-0.2956364665109151	-0.3015246482079962	-0.3879492264334186	0.2499269421184882	0.2499269421184919	-0.1745325770869742	-0.1744515687615613	-0.0008036623358878681	0.0004406964527937743	0	0	0	0	0	0	0	0	0	0	0	0	0	0.06259165294260025	-0.02632292174417781	-0.01778396627074078	-0.223982412362404	0.1573541670429557	-0.02101206533854799	0.009007649986862985	6.177411873271903	5.08310274794991	2.1172723111563	22.7972789219466	-628.9664187199653	-64.36170502457057	-23.19420706015507	-1.392231126201273	-2.215938930837201	-0.8517076370661045	8.845036123214692	-0.5594296017495609	2.561251198598809	-6.933347601346889	7.446794424569837	7.446794424569247	1.227708159133903	-0.1162484666619181	0.4238476675739329	-0.4647847459031028	1.437611618463596e-08	7.478550529255479e-08	2.566181030521736e-08	-2.28792928747442e-08	1.302744236262176e-07	2.62089829871975e-08	8.703253809081683e-10
0.01	-0.03687633714249611	0.05656331482383643	0.9203002369002821	0.3090124301084636	-0.2956645227293538	-0.3013956614255692	-0.3882937668014295	0.250291419022989	0.2502914190230039	-0.1744742035380214	-0.1744540788496649	-0.0007830669187272094	0.0004171513335560536	-0.01306745796575295	-0.0215829515941589	-0.008272744246511135	0.085617144172398	-0.005568680188748542	0.02572873670642061	-0.06837414432877796	0.07252792382638794	0.07252792382638677	0.01162995507430061	-0.0004276949910713758	0.004199060145906788	-0.004636575151448806	0.05752010485169786	-0.03518943207463897	-0.01728732289687392	-0.2215677737673829	0.1537858846464709	-0.01013060364074894	0.01433646411752495	5.34222856287922	0.5910558875250418	2.733438875070045	21.05340770262616	-631.8917608288594	-73.33502085442601	-23.19845202890509	-1.251769709527481	-2.10252338405996	-0.808577261556478	8.340533277669385	-0.5492172862460011	2.568391225991752	-6.709358457842814	7.100672626184053	7.100672626184238	1.123939986639263	0.005120792818353424	0.4299352107229685	-0.4522418207230301	-7.434299413394402e-09	9.715771054716061e-08	6.840503739740385e-08	5.920782248746025e-09	2.04057421036605e-08	6.721863164572736e-10	-6.389133403848663e-11
0.02	-0.03707031028997302	0.05624406204567906	0.9201772266978954	0.3102834337967753	-0.2957469917614416	-0.3010114460122141	-0.3893060307345657	0.2513701514186764	0.2513701514186764	-0.1743008702773147	-0.1744586357260216	-0.0007180808955826499	0.0003494108786124015	-0.02564557904213555	-0.0420879076024514	-0.01628626621751282	0.168053476881476	-0.01088256272983686	0.05104572618596747	-0.1335447130255539	0.1428510982332079	0.1428510982332083	0.02299194235104641	-0.0004093576562200356	0.008878121196771588	-0.008839067141187637	0.05244855676084609	-0.0440559424051024	-0.01679067952316046	-0.2191531351723104	0.1502176022499954	0.0007508580570529559	0.01966527824821879	4.564683670798312	-3.90893985567924	3.348424276417728	19.26910558688452	-633.922198196201	-82.23500328879379	-23.21083191142667	-1.294363748327315	-2.000339813663824	-0.7998631819642124	8.208873830550685	-0.5084700722175196	2.478901753224068	-6.292632474946541	7.005844540656213	7.005844540656179	1.174114599622927	-0.02704200147735877	0.5198478485656438	-0.3779681135610741	-2.924471501142477e-08	1.195299158017664e-07	1.111482644895903e-07	3.472085737223625e-08	-8.94629394188966e-08	-2.486461035428295e-08	-9.981080489851416e-10
0.03	-0.03738804541760859	0.05572445392533587	0.9199750254102308	0.3123646600523442	-0.2958816301730287	-0.3003770576118194	-0.3909554344853108	0.2531419305514189	0.2531419305514123	-0.1740157065572426	-0.1744620534502724	-0.0006047243079908285	0.000241226539112565	-0.03783972760045244	-0.06172299102125798	-0.02414206774327691	0.2478036316566538	-0.01603874866888018	0.07570166430705604	-0.1959722049039014	0.2112075308855705	0.2112075308855653	0.03393347717627621	-0.00029562241612692	0.01378928212415335	-0.01279129211516769	0.04750992932655984	-0.03813963200776695	-0.0163002798725668	-0.2157802490168097	0.1488014309999335	-0.002324245316467407	0.02416127550107139	3.973783995843074	-2.525193422161001	3.190906976048226	18.83137809434157	-634.9178894636773	-78.62863953583872	-23.23074009849191	-1.172685073751111	-1.928476728451462	-0.7766684385594679	7.799860160634728	-0.5182670772908222	2.439384161545256	-6.163232711508758	6.70596321655771	6.705963216556617	1.038104009948029	0.02738200383480457	0.4761650995641586	-0.40290511183833	-4.323544069171219e-08	8.332748305361823e-08	1.584660127712428e-07	4.266954019716818e-08	-1.465161363576439e-07	-5.494665002336844e-08	-1.06138147807108e-08
0.04	-0.03782587096365677	0.05501181814631244	0.9196946201471731	0.3152317426275935	-0.2960676452885153	-0.2995000209662154	-0.3932181981882851	0.2555883581284816	0.2555883581284816	-0.1736243412717269	-0.1744649736787193	-0.0004423731341771742	9.37088653685711e-05	-0.0496636627254754	-0.08069343933850227	-0.03192706129611924	0.3252247408171692	-0.02115790350964822	0.0995753752279044	-0.2562167034714593	0.2777807870991899	0.2777807870991681	0.04423225544050723	-0.0003098584927454179	0.0186770384411252	-0.01670573399002144	0.04257130189226874	-0.03222332161042594	-0.01580988022188989	-0.2124073628613215	0.147385259749872	-0.005399348689982998	0.02865727275391752	3.436329582864788	-1.148021615542947	3.031258475361548	18.34933628555834	-635.0950083124288	-74.95228716417668	-23.25766519317344	-1.220321061668636	-1.867412793351273	-0.785701587379858	7.743064707618203	-0.5010638525624665	2.32245631317604	-5.85603381278867	6.649209252907528	6.649209252905301	1.045563287423156	-0.05263626481966359	0.5151669264837663	-0.3704114937357841	-5.706493565204615e-08	4.591732581056788e-08	2.058780810774204e-07	5.018829740769683e-08	-2.024803542328075e-07	-8.51224060429353e-08	-2.040852130659686e-08
0.05	-0.03838009120502252	0.05411313915116966	0.919336685869886	0.3188608541634773	-0.2963042193035023	-0.298388713012305	-0.3960707896297861	0.2586911833023092	0.2586911833023133	-0.1731325391390692	-0.17446883293346	-0.0002309698969099485	-9.219586954830045e-05	-0.06109616714132877	-0.09889764216399941	-0.03964745994231524	0.4001251202441955	-0.02610943224043021	0.1225570612238155	-0.3137935237629426	0.3424331144271698	0.3424331144271727	0.0540724212078585	-0.0004427147143452025	0.02362918082829984	-0.0204162524096893	0.0350901403838001	-0.03039837737405168	-0.0149264556321546	-0.2069184644472336	0.1419302516165987	-0.002912410954933815	0.03529070565451537	1.776241950895231	-1.961440529279841	3.188366192977881	18.01764683768026	-636.1082178368744	-75.65153637830851	-23.29096921737064	-1.092083763088746	-1.775206299574013	-0.763399818694907	7.292651778905452	-0.4851046671044924	2.266619998455616	-5.632296977623465	6.320578647657821	6.320578647662704	0.9449054758312198	0.009317158634150762	0.4890734629638262	-0.3625586581604551	-6.785328422365495e-08	4.173488706212157e-08	2.292294955465709e-07	6.31949804180973e-08	-2.573782454873556e-07	-9.982361336696713e-08	-2.271933674060044e-08
